<svg id="visual" viewBox="0 0 100 960" width="100" height="960" xmlns="http://www.w3.org/2000/svg"
    xmlns:xlink="http://www.w3.org/1999/xlink" version="1.1">
    <path
        d="M75 0L84.3 22.8C93.7 45.7 112.3 91.3 111 137C109.7 182.7 88.3 228.3 85.8 274C83.3 319.7 99.7 365.3 97.8 411.2C96 457 76 503 67.5 548.8C59 594.7 62 640.3 66 686C70 731.7 75 777.3 79.7 823C84.3 868.7 88.7 914.3 90.8 937.2L93 960L0 960L0 937.2C0 914.3 0 868.7 0 823C0 777.3 0 731.7 0 686C0 640.3 0 594.7 0 548.8C0 503 0 457 0 411.2C0 365.3 0 319.7 0 274C0 228.3 0 182.7 0 137C0 91.3 0 45.7 0 22.8L0 0Z"
        fill="#f7f6f4" stroke-linecap="round" stroke-linejoin="miter"></path>
</svg>