<svg xmlns="http://www.w3.org/2000/svg" viewBox="0 0 320 1440">
    <path fill-opacity="1"
        d="M0,160L30,176C60,192,120,224,180,234.7C240,245,300,235,360,213.3C420,192,480,160,540,160C600,160,660,192,720,208C780,224,840,224,900,229.3C960,235,1020,245,1080,218.7C1140,192,1200,128,1260,101.3C1320,75,1380,85,1410,90.7L1440,96L1440,320L1410,320C1380,320,1320,320,1260,320C1200,320,1140,320,1080,320C1020,320,960,320,900,320C840,320,780,320,720,320C660,320,600,320,540,320C480,320,420,320,360,320C300,320,240,320,180,320C120,320,60,320,30,320L0,320Z">
    </path>
</svg>